<?xml version="1.0" standalone="no"?>
<!DOCTYPE svg PUBLIC "-//W3C//DTD SVG 20010904//EN"
 "http://www.w3.org/TR/2001/REC-SVG-20010904/DTD/svg10.dtd">
<svg version="1.0" xmlns="http://www.w3.org/2000/svg"
 width="244.000000pt" height="244.000000pt" viewBox="0 0 244.000000 244.000000"
 preserveAspectRatio="xMidYMid meet">

<g transform="translate(0.000000,244.000000) scale(0.100000,-0.100000)"
fill="#000000" stroke="none">
<path d="M1190 2011 c0 -5 5 -13 10 -16 6 -3 10 -2 10 4 0 5 -4 13 -10 16 -5
3 -10 2 -10 -4z"/>
<path d="M1301 2004 c0 -11 3 -14 6 -6 3 7 2 16 -1 19 -3 4 -6 -2 -5 -13z"/>
<path d="M178 1800 c-10 -6 -18 -18 -18 -26 0 -12 4 -12 25 2 22 14 29 14 77
0 68 -20 143 -77 190 -146 44 -62 51 -55 10 11 -70 110 -224 196 -284 159z"/>
<path d="M2120 1796 c-48 -16 -121 -68 -154 -107 -33 -39 -66 -102 -66 -126 0
-10 11 5 24 32 24 52 101 132 154 159 53 27 60 17 8 -12 -27 -15 -52 -36 -54
-47 -3 -11 -7 -82 -8 -157 -3 -136 -3 -138 19 -139 21 -1 21 -1 -3 -10 -19 -7
-15 -7 18 -4 63 8 88 29 128 109 30 62 37 87 43 172 12 141 -9 166 -109 130z
m53 -23 c-7 -2 -19 -2 -25 0 -7 3 -2 5 12 5 14 0 19 -2 13 -5z m42 -3 c3 -6
-1 -7 -9 -4 -18 7 -21 14 -7 14 6 0 13 -4 16 -10z"/>
<path d="M1123 1735 c2 -5 12 -10 22 -10 10 0 20 5 22 10 2 6 -8 10 -22 10
-14 0 -23 -4 -22 -10z"/>
<path d="M1248 1742 c-10 -2 -18 -8 -18 -13 0 -13 27 -11 35 2 9 13 4 16 -17
11z"/>
<path d="M822 1527 c-30 -32 -28 -43 4 -18 15 12 32 21 39 21 7 0 24 -9 39
-21 14 -11 26 -16 26 -10 0 14 -50 51 -70 51 -9 0 -26 -10 -38 -23z"/>
<path d="M1492 1534 c-12 -8 -22 -22 -22 -31 0 -15 2 -14 18 0 10 10 29 17 42
17 13 0 32 -7 42 -17 10 -9 18 -11 18 -5 0 16 -41 52 -60 52 -8 0 -26 -7 -38
-16z"/>
<path d="M1900 1425 c0 -24 -142 -294 -197 -376 -73 -108 -115 -138 -143 -104
-17 21 -24 12 -10 -14 40 -75 154 57 299 348 45 89 70 161 57 161 -3 0 -6 -7
-6 -15z"/>
<path d="M500 1388 c0 -15 143 -289 185 -353 41 -64 103 -125 126 -125 10 0
23 9 29 19 13 25 13 42 -1 19 -15 -27 -35 -22 -82 21 -46 43 -102 132 -196
313 -34 65 -61 112 -61 106z"/>
<path d="M27 1242 c-10 -10 -17 -25 -17 -32 0 -9 7 -6 20 8 24 26 62 28 85 6
22 -22 28 -13 9 14 -19 28 -74 30 -97 4z"/>
<path d="M2283 1252 c-7 -5 -15 -21 -17 -38 -6 -50 -15 -61 -115 -142 -140
-115 -280 -212 -306 -212 -13 0 -26 9 -33 23 -6 12 -11 16 -11 9 -2 -29 20
-52 48 -52 33 0 221 132 344 241 40 34 59 48 42 30 -16 -18 -70 -66 -120 -106
-85 -69 -90 -75 -90 -112 0 -21 4 -43 8 -50 4 -6 3 -23 -3 -38 -19 -49 -9 -41
15 14 14 29 22 57 19 62 -3 5 -1 8 4 7 6 -2 30 25 55 60 24 35 68 88 97 118
44 46 58 54 89 54 49 0 62 11 71 59 10 53 -9 81 -53 81 -18 0 -38 -4 -44 -8z"/>
<path d="M141 1148 c17 -32 64 -71 242 -205 80 -59 148 -103 161 -103 25 0 46
17 46 38 0 10 -3 10 -16 -2 -8 -9 -22 -16 -31 -16 -25 0 -215 139 -347 254
-48 42 -65 52 -55 34z"/>
<path d="M1431 1063 c-13 -38 -30 -78 -37 -90 -20 -31 -57 -29 -83 3 -25 31
-27 25 -6 -16 19 -37 50 -47 76 -25 19 18 82 170 77 186 -2 5 -14 -21 -27 -58z"/>
<path d="M946 1088 c3 -13 21 -56 40 -95 33 -74 49 -86 77 -58 17 17 52 103
45 110 -3 3 -10 -12 -16 -33 -7 -21 -21 -47 -32 -57 -19 -17 -21 -17 -40 0
-10 9 -31 48 -46 86 -26 66 -43 94 -28 47z"/>
<path d="M430 580 c0 -16 28 -29 125 -59 151 -46 279 -62 553 -68 249 -6 451
5 607 32 133 24 153 25 88 8 -35 -9 -63 -20 -63 -24 0 -7 22 -3 129 27 41 12
51 18 40 25 -11 8 -9 9 6 5 23 -6 39 2 48 27 8 21 6 21 -69 -2 -150 -47 -454
-81 -729 -81 -268 0 -490 30 -652 88 -46 16 -83 26 -83 22z"/>
</g>
</svg>
